<?xml version="1.0" encoding="UTF-8"?>
<svg xmlns="http://www.w3.org/2000/svg" width="32" height="32" fill="#0d6efd" class="bi bi-box-seam-fill" viewBox="0 0 16 16">
  <path fill-rule="evenodd" d="M15.528 2.973a.75.75 0 0 1 .472.696v8.662a.75.75 0 0 1-.472.696l-7.25 2.9a.75.75 0 0 1-.557 0l-7.25-2.9A.75.75 0 0 1 0 12.331V3.669a.75.75 0 0 1 .471-.696L7.443.184l.01-.003.268-.108a.32.32 0 0 1 .051-.01c.076-.023.174-.023.25.002.068.019.296.096.297.097l7.21 2.812ZM8.5 1.734l-6.505 2.535 6.505 2.535 6.506-2.535L8.5 1.734ZM1 4.583v7.716l6.5 2.6v-7.92L1 4.583Zm7.5 2.396v7.92l6.5-2.6V4.583l-6.5 2.396Z"/>
</svg>
